<svg id="Capa_1" enable-background="new 0 0 512 512" height="512" viewBox="0 0 512 512" width="512" xmlns="http://www.w3.org/2000/svg"><g><g><path d="m54.043 327.794h-30v65.162h-24.043v30h78.087v-30h-24.044z" fill="#ebeaf9"/><path d="m487.957 392.956v-65.162h-30v65.162h-24.044v30h78.087v-30z" fill="#cfcfe8"/></g><g><path d="m0 34.4h512v308.39h-512z" fill="#635a70"/><path d="m256 34.4h256v308.39h-256z" fill="#393444"/></g><g><path d="m108 168.6h296v309h-296z" fill="#ebeaf9"/><path d="m256 168.6h148v309h-148z" fill="#cfcfe8"/></g><g><path d="m119.803 79.294h30v30h-30z" fill="#ffe780"/><path d="m326.064 79.294h126v30h-126z" fill="#8bd3f2"/><path d="m59.936 79.294h30v30h-30z" fill="#bf88ff"/></g><path d="m81 153.6h350v30h-350z" fill="#393444"/><g><path d="m337.121 280.3v100.703l-81.121 47.321-81.121-47.321v-100.703z" fill="#8a69e8"/><path d="m337.121 280.3v100.703l-81.121 47.321v-148.024z" fill="#524dc1"/><path d="m276 280.3-20 47.261-81.121-47.261 81.121-47.321z" fill="#bf88ff"/><path d="m337.121 280.3-81.121 47.261v-94.582z" fill="#8a69e8"/></g><path d="m256 153.6h175v30h-175z" fill="#1d1b23"/></g></svg>