<svg id="Flat" height="512" viewBox="0 0 16 16" width="512" xmlns="http://www.w3.org/2000/svg"><path d="m13 .5h-10a2.5009 2.5009 0 0 0 -2.5 2.5v10a2.501 2.501 0 0 0 2.5 2.5h10a2.501 2.501 0 0 0 2.5-2.5v-10a2.5009 2.5009 0 0 0 -2.5-2.5zm-6.15 9.15a.4836.4836 0 0 1 0 .7.4836.4836 0 0 1 -.7 0l-2-2a.4836.4836 0 0 1 0-.7l2-2a.495.495 0 0 1 .7.7l-1.64 1.65zm5-1.3-2 2a.4836.4836 0 0 1 -.7 0 .4836.4836 0 0 1 0-.7l1.64-1.65-1.64-1.65a.495.495 0 1 1 .7-.7l2 2a.4836.4836 0 0 1 0 .7z" fill="#765acc"/><path d="m13 .5h-5v15h5a2.501 2.501 0 0 0 2.5-2.5v-10a2.5009 2.5009 0 0 0 -2.5-2.5zm-1.15 7.85-2 2a.4836.4836 0 0 1 -.7 0 .4836.4836 0 0 1 0-.7l1.64-1.65-1.64-1.65a.495.495 0 1 1 .7-.7l2 2a.4836.4836 0 0 1 0 .7z" fill="#48397c"/></svg>