<svg id="Capa_1" enable-background="new 0 0 512 512" height="512" viewBox="0 0 512 512" width="512" xmlns="http://www.w3.org/2000/svg"><g><g><g><path d="m0 0h90v90h-90z" fill="#ebeaf9"/><path d="m422 0h90v90h-90z" fill="#cfcfe8"/><path d="m0 422h90v90h-90z" fill="#ebeaf9"/><path d="m422 422h90v90h-90z" fill="#cfcfe8"/></g><g><g fill="#635a70"><path d="m30 238.912h30v30h-30z"/><path d="m30 152.044h30v30h-30z"/><path d="m30 325.779h30v30h-30z"/><path d="m241 29.18h30v30h-30z"/></g><path d="m327.867 29.176h30v30h-30z" fill="#393444"/><path d="m154.133 29.176h30v30h-30z" fill="#635a70"/><path d="m241 452h30v30h-30z" fill="#635a70"/><path d="m327.867 452h30v30h-30z" fill="#393444"/><path d="m154.133 452h30v30h-30z" fill="#635a70"/><path d="m452 238.912h30v30h-30z" fill="#393444"/><path d="m452 152.044h30v30h-30z" fill="#393444"/><path d="m452 325.779h30v30h-30z" fill="#393444"/></g><g fill="#393444"><path d="m256 29.18h15v30h-15z"/><path d="m256 452h15v30h-15z"/></g></g><g><path d="m380.905 176.384v155.056l-124.905 72.862-124.905-72.862v-155.056z" fill="#8a69e8"/><path d="m380.905 176.384v155.056l-124.905 72.862v-227.918z" fill="#524dc1"/><path d="m276 176.384-20 72.769-124.905-72.769 124.905-72.862z" fill="#bf88ff"/><path d="m380.905 176.384-124.905 72.769v-145.631z" fill="#8a69e8"/></g></g></svg>