<svg id="Layer_1" enable-background="new 0 0 53 53" height="512" viewBox="0 0 53 53" width="512" xmlns="http://www.w3.org/2000/svg"><g id="_x31_43"><g><g><path d="m41.4717178 4.3593378-27.7722692 19.0445795-2.8855486-1.6780166-.0088873-1.1719837c0-1.4383316 1.0121746-3.1963329 2.2640343-3.9154987l23.9012098-13.7973424c.6303978-.3640535 1.1986427-.3995485 1.6159134-.1598086z" fill="#b28afd"/></g><g><g><g><g><g><g><g><g><g><g><g><g><g><g enable-background="new"><g><path d="m14.4114714 50.3129005-2.8855495-1.6780701c-.4084349-.2307968-.6570625-.7368851-.6570625-1.4560509l-.0532694-25.455019 2.8855486 1.6780701 5.3595457 22.5863361c-.0000001.7192193-5.0576488 4.0938836-4.6492129 4.3247338z" fill="#dedffb"/></g><g><path d="m42.1949883 32.4420319c0 1.4400024-1.0100098 3.1900024-2.2600098 3.9200439l-23.8999634 13.7999878c-1.2600107.7199707-2.2800303.1400146-2.2800303-1.2999878l-.0499878-25.4600201 28.4400035-16.4199833z" fill="#f8f9fe"/></g><g><path d="m42.1405144 5.8111634v1.1719832l-28.438221 16.416544-.0088873-1.1630955c0-1.4472179 1.0121746-3.1963329 2.2640896-3.9243317l23.901207-13.7973967c1.2518625-.7280525 2.2729234-.1420339 2.2818117 1.2962967z" fill="#7e5af2"/></g></g></g><g><g enable-background="new"><g><path d="m27.2499084 13.5732021c-.1154251-.0709896-.4040222 1.0307341-.5816059 1.1373272l-9.6104584 5.1777287c-.3551121.195303-.1117496.0722828-.1117496.4718304 0 .2041912-.5813732.3959351-.4659462.4580917l-.4527626-.2663479c-.115427-.0621567-.186471-.2042446-.186471-.4084358 0-.3995476.2841215-.8967476.6304007-1.0920525l9.8730125-5.7001076c.1775284-.1065388.3373909-.1154261.4527626-.0443821z" fill="#fff"/></g><g><path d="m27.4375343 13.979497c0 .3994942-.2841225.8878613-.6304016 1.0920525l-9.8730125 5.7000532c-.3551655.2042446-.6392326.0443821-.6392326-.3639984 0-.3995495.2840672-.8878613.6303463-1.0920525l9.8730125-5.7001076c.3551655-.2041912.6392879-.0443831.6392879.3640528z" fill="#d3daea"/></g></g><g enable-background="new"><g fill="#fff"><path d="m33.951561 9.5887995-1.1098289 1.9000359-.452816-.2663479c-.1420898-.0799313-.230854-.2574606-.230854-.4972 0-.4972.3462791-1.1009388.7813225-1.3495665.2130775-.1243134.4084358-.1331463.5504684-.0532694z"/><path d="m36.5707054 8.0794783-1.1009369 1.8910942-.4528198-.2663469c-.1420326-.0798769-.2307968-.2485733-.2307968-.4972 0-.4972.3462257-1.0920525.7724342-1.3406792.2219658-.1242595.4172668-.1420341.5593567-.0532699z"/><path d="m39.1987953 6.5612164-1.1009407 1.9000359-.4617043-.2664013c-.1331444-.0798779-.2219658-.2574606-.2219658-.5060334 0-.4883671.3462791-1.0921063.7724342-1.3406792.2130814-.1243138.4173241-.1332011.5593567-.0532694z"/></g><g><path d="m38.6475677 6.609724c.4301567-.2483516.779789-.0491014.7811928.4451776.0014.4938259-.3459625 1.0959392-.7761192 1.3442903-.4297562.2481194-.7793961.04842-.7807961-.445406-.0013999-.4942794.3459664-1.0959425.7757225-1.3440619z" fill="#d3daea"/></g></g></g></g></g></g></g></g></g></g></g></g></g></g><path d="m15.3474636 20.8067093c-.3875637 0-.7363672.1796627-.9882717.4664993-.2519217.2868156-.4096975.6839619-.4096975 1.1252384 0-.8793983-.6256294-1.5917377-1.3979855-1.5917377.3875637 0 .7363672-.1796417.9882717-.4664783.2519207-.2868156.4097137-.6839619.4097137-1.1252384 0 .4412766.1577759.8384228.4096975 1.1252384.2519046.2868366.6007081.4664783.9882718.4664783z" fill="#fff"/></g><g><g><path d="m36.0224686 8.1253271c.4301567-.2483516.7797928-.0491047.7811966.4451742.0014.4938259-.3459663 1.0959415-.776123 1.3442936-.4297562.2481194-.7793961.04842-.7807961-.445406-.0014-.4942798.3459663-1.0959424.7757225-1.3440618z" fill="#d3daea"/></g></g><g><g><path d="m33.3973732 9.6409264c.4301491-.2483482.779789-.0491009.781189.445178.0014.4938259-.3459663 1.0959415-.7761154 1.3442898-.4297638.2481222-.7794037.0484238-.7808037-.4454021-.0014-.4942799.3459663-1.0959426.7757301-1.3440657z" fill="#d3daea"/></g></g></g><g><g><g><g><g><path d="m27.9331665 20.4072495c.1121635-.0647564.2246494-.092247.322916-.0740757l6.8547764 1.3199329c.2661285.0521011.3384552.4238396.1622925.8311729-.1122665.2565823-.2942162.4635029-.4816513.5717201-.1093445.0631294-.2222557.0923634-.3213959.0736961l-1.9143219-.3680439-4.6186695-.8879776-4.5985546 6.2095451-1.9059811 2.5736961c-.2067738.2799511-.5873623.5242786-.8023415.2814541-.1796284-.2019176-.109642-.6558189.1553192-1.0145435l6.8266373-9.2189026c.0969792-.1308974.2088185-.2329196.3209744-.297674z" fill="#e93565"/></g></g><g><g><path d="m34.5319328 32.0630188c.3696747-.2134304.6691628-.0427628.6703682.3820229s-.2963409.9401512-.6660118 1.1535835l-13.1104183 7.5693016c-.3696728.2134323-.6691628.0427628-.6703682-.3820229-.0005989-.2113953.0734863-.4459343.1945801-.655674.11936-.2087402.2874622-.3916931.4714336-.4979095l.2238903-.129261 12.6626453-7.3107834z" fill="#72d561"/></g></g><g><g><path d="m27.9371128 21.8736744 4.6186695.8879776 1.7264748.3326702.025795 9.0979538-12.6626454 7.3107834-.0257931-9.0979557 1.7189446-2.3218842z" fill="#ffd06c"/></g></g></g><g><g><g><path d="m31.1207409 28.3358097.0102806 3.6264248-3.1559505 1.8220901-.0102807-3.6264267z" fill="#678aee"/><path d="m27.9750347 33.9017792c-.0202789 0-.040556-.0049744-.0585384-.0156898-.0363483-.0206604-.0589218-.0596848-.0589218-.101387l-.0103302-3.6263124c-.0003815-.0420856.022192-.0811119.0585384-.1021538l3.1560917-1.8223381c.0367298-.0206604.0814953-.0214272.1174603 0 .0363464.0206604.0589199.0596848.0589199.1013889l.0103302 3.6266937c.0003834.0420856-.0221901.08111-.0585384.1021557l-3.1560917 1.8219528c-.018364.0103341-.038643.01569-.05892.01569zm.1075115-3.6760502.0095654 3.3554287 2.9211731-1.6865158-.0095654-3.3558102z" fill="#fff"/></g></g><g><g><path d="m31.1104584 24.7093849.0102825 3.6264248-3.1559506 1.8220882-.0102806-3.6264247z" fill="#678aee"/><path d="m27.9647045 30.2754669c-.0202789 0-.040556-.0049744-.0585384-.015686-.0363483-.0206604-.0589218-.0596867-.0589218-.1013908l-.0103302-3.6266937c-.0003815-.0420856.022192-.0811119.0585384-.1021538l3.1560917-1.8219566c.0367298-.0206604.0814953-.0214252.1174603 0 .0363464.0206604.0589199.0596867.0589199.1013908l.0103302 3.6263103c.0003834.0420856-.0221901.0811119-.0585384.1021557l-3.1560917 1.8223381c-.018364.0103302-.038643.015686-.05892.015686zm.1075115-3.6764316.0095654 3.3558102 2.9211731-1.6868973-.0095654-3.3554268z" fill="#fff"/></g></g><g><g><path d="m27.9647903 30.1578979.0102807 3.6264267-3.1578656 1.8231926-.0102825-3.6264228z" fill="#678aee"/><path d="m24.81703 35.7248802c-.0202789 0-.040556-.0049744-.0585384-.015686-.0363483-.0206604-.0589218-.0596848-.0589218-.1013908l-.0099468-3.6263103c0-.0420856.0221901-.0811119.0585384-.1021538l3.1576214-1.823103c.0367298-.0206623.0814953-.0214272.1174603 0 .0363464.0206604.0589199.0596848.0589199.1013889l.0103302 3.6263103c.0003834.0420876-.0221901.0811119-.0585384.1021538l-3.1580048 1.8231049c-.0183641.0103302-.038643.015686-.05892.015686zm.1078929-3.6760483.009182 3.3554268 2.9230881-1.6876602-.0095654-3.3554287z" fill="#fff"/></g></g><g><g><path d="m27.9545097 26.5314732.0102806 3.6264247-3.1578674 1.8231965-.0102806-3.6264248z" fill="#678aee"/><path d="m24.8070812 32.0985718c-.020277 0-.040556-.0049744-.0585384-.0156898-.0363464-.0206604-.0589199-.0596848-.0589199-.1013889l-.0103302-3.6263103c-.0003834-.0420856.0221901-.0811119.0585384-.1021557l3.1576214-1.8234844c.0367298-.0206623.0814953-.0214272.1174603 0 .0363464.0206604.0589199.0596848.0589199.1013889l.0103302 3.6266937c.0003834.0420856-.0221901.0811119-.0585384.1021557l-3.1576214 1.823101c-.0183659.0103301-.0386429.0156898-.0589219.0156898zm.1075115-3.6760502.0095654 3.3554268 2.9227047-1.6876621-.0095654-3.3558102z" fill="#fff"/></g></g></g></g><g><g><path d="m24.4237919 23.9574375.0082283 1.7310944-1.9596405 2.3029861-.0082283-2.9026813z" fill="#e93565"/></g><g><path d="m25.1167488 21.8930283.0047054 1.6600208-.6614723.3819008-2.0320434 1.1732006-.6561833.3788471-.0047054-1.6600189z" fill="#f45170"/></g></g></g></g></svg>