<svg id="Layer_1" enable-background="new 0 0 53 53" height="512" viewBox="0 0 53 53" width="512" xmlns="http://www.w3.org/2000/svg"><g id="_x34_7"><g><g><g><path d="m50.4986076 9.1060591v34.7836571c0 3.6495934-2.9585762 6.6081734-6.6081696 6.6081734h-34.7782334c-3.6495914 0-6.6081705-2.95858-6.6081705-6.6081734v-34.7836571c0-3.6495919 2.9585788-6.6081705 6.6081705-6.6081705h34.7782326c3.6495942 0 6.6081704 2.9585786 6.6081704 6.6081705z" fill="#e4e3ff"/></g></g><g><g><g><path d="m50.5 9.102087v34.7900391c0 3.6499634-2.960083 6.6099854-6.6101074 6.6099854h-34.7800293c-2.289917 0-4.3099365-1.1599731-5.4899902-2.9299927 1.0600586.710022 2.3300781 1.1300049 3.7000732 1.1300049h34.7799072c3.6401367 0 6.6000977-2.960022 6.6000977-6.6099854v-34.7800293c0-1.3599854-.4100342-2.6300049-1.1199951-3.6799927 1.7598877 1.1799927 2.9200439 3.1900025 2.9200439 5.4699707z" fill="#d0d0f7"/></g></g><g><g><path d="m50.5 9.102087v5.6800537h-26.630127c-.3399658 0-.6499023-.1500244-.8499756-.4100342l-1.8800049-2.4199829c-.3199463-.4100342-.8199463-.6500244-1.3399658-.6500244h-10.3199462c-.9400635 0-1.7000732.7600098-1.7000732 1.7000122v.710022c0 .5899658-.4799805 1.0700073-1.0699463 1.0700073h-4.209961v-5.6800537c0-3.6499634 2.9599609-6.5999756 6.6098633-6.5999756h34.7800293c1.3601074 0 2.6400146.4199829 3.6900635 1.1300049 1.9297485 1.2864986 2.9200439 3.4076925 2.9200439 5.4699707z" fill="#ff8d8d"/></g></g><g><g><path d="m46.254715 22.8322945v20.2993088c0 1.0982552-.8903122 1.9885674-1.9885712 1.9885674h-35.5296459c-1.0982556 0-1.9885683-.8903122-1.9885683-1.9885674v-20.2993088c0-1.0982571.8903127-1.9885693 1.9885683-1.9885693h35.5296478c1.0982571 0 1.9885693.8903122 1.9885693 1.9885693z" fill="#d0d0f7"/></g></g><g><g><path d="m46.2399902 22.7121334c-.0400391-.0100098-.0700684-.0100098-.1101074-.0100098h-35.5300293c-1.0998535 0-1.9899902.8900146-1.9899902 1.9899902v20.2999859c0 .0400391 0 .0800171.0100098.1199951-1.0499268-.0599975-1.8698731-.9199828-1.8698731-1.9799804v-20.2999859c0-1.1000366.8898926-1.9899902 1.9899902-1.9899902h35.5299072c1.0500489 0 1.9100342.8199463 1.9700928 1.8699951z" fill="#c2c2ef"/></g></g><g><g><g><g><path d="m32.3133507 8.9214439c0 1.3223238-1.0627766 2.3851004-2.3851757 2.3851004-1.3098793 0-2.385025-1.0627766-2.385025-2.3851004s1.0751457-2.3850999 2.385025-2.3850999c1.3223991.0000001 2.3851757 1.0627766 2.3851757 2.3850999z" fill="#7979f7"/></g></g><g><g><path d="m32.3131676 8.9183311c0 1.3300171-1.0600567 2.3900146-2.380125 2.3900146-.8898926 0-1.6699219-.4899902-2.079834-1.2199707.3498535.2099609.75.3199463 1.1799316.3199463 1.3200684 0 2.3800049-1.0599976 2.3800049-2.3899536 0-.4299932-.1099854-.8200078-.3099365-1.1700444.7199706.4000245 1.209959 1.1799932 1.209959 2.0700078z" fill="#5e5eef"/></g></g></g><g><g><g><path d="m38.4899597 8.9214439c0 1.3223238-1.0627785 2.3851004-2.3851776 2.3851004-1.3098793 0-2.385025-1.0627766-2.385025-2.3851004s1.0751457-2.3850999 2.385025-2.3850999c1.3223991.0000001 2.3851776 1.0627766 2.3851776 2.3850999z" fill="#00d67f"/></g></g><g><g><path d="m38.4897766 8.9183311c0 1.3300171-1.0600586 2.3900146-2.380127 2.3900146-.8898926 0-1.6699219-.4899902-2.079834-1.2199707.3498535.2099609.75.3199463 1.1799316.3199463 1.3200684 0 2.3800049-1.0599976 2.3800049-2.3899536 0-.4299932-.1099854-.8200078-.3099365-1.1700444.7199708.4000245 1.209961 1.1799932 1.209961 2.0700078z" fill="#00c179"/></g></g></g><g><g><g><path d="m44.6665649 8.9214439c0 1.3223238-1.0627747 2.3851004-2.3851738 2.3851004-1.3098793 0-2.385025-1.0627766-2.385025-2.3851004s1.0751457-2.3850999 2.385025-2.3850999c1.3223992.0000001 2.3851738 1.0627766 2.3851738 2.3850999z" fill="#fc6559"/></g></g><g><g><path d="m44.6663857 8.9183311c0 1.3300171-1.0600586 2.3900146-2.380127 2.3900146-.8898926 0-1.6699219-.4899902-2.079834-1.2199707.3498535.2099609.75.3199463 1.1799316.3199463 1.3200684 0 2.3800049-1.0599976 2.3800049-2.3899536 0-.4299932-.1099854-.8200078-.3099365-1.1700444.7199707.4000245 1.209961 1.1799932 1.209961 2.0700078z" fill="#f05543"/></g></g></g></g><g><g opacity=".3"><g><path d="m9.996336 4.2639918h1.2762785c.4619217 0 .836689.3747668.836689.836689s-.3747673.8366895-.836689.8366895h-1.2762785c-.4619217 0-.836689-.3747673-.836689-.8366895s.3747673-.836689.836689-.836689z" fill="#fff"/></g></g><g opacity=".3"><g><path d="m13.5097771 4.2639918h10.4013157c.4619236 0 .8366909.3747668.8366909.836689s-.3747673.8366895-.8366909.8366895h-10.4013157c-.4619217 0-.836689-.3747673-.836689-.8366895s.3747673-.836689.836689-.836689z" fill="#fff"/></g></g></g></g><g><g><path d="m50.5 9.102087v5.6800537h-1.8000488v-7.4700317c0-1.3599854-.4100342-2.6300049-1.1199951-3.6799927 1.9297485 1.2864986 2.9200439 3.4076925 2.9200439 5.4699707z" fill="#ff7b7b"/></g></g></g><g><g><g><g><path d="m35.6625977 32.9881172c0 5.1421852-4.2249165 9.1499672-9.1725826 9.1499672-5.0382404 0-9.1499672-4.111866-9.1499672-9.1499672 0-2.5304947 1.0391693-4.8122292 2.688385-6.4841957 1.6493511-1.6718292 3.953701-2.6885223 6.4615822-2.6885223 2.5303574 0 4.8122292 1.0166931 6.4840603 2.6885223 1.6718253 1.6719666 2.6885223 3.953701 2.6885223 6.4841957z" fill="#8666c6"/></g></g><g opacity=".3"><g><g><path d="m21.7718639 26.7918053c-.1821289-.2768555-.1049805-.6489258.1723633-.8305664 2.5166016-1.6533203 5.9794922-1.7700195 8.6245117-.2871094.2890625.1621094.3920898.527832.2299805.8168945s-.5283203.390625-.8168945.2299805c-2.2612305-1.2680664-5.2290039-1.1674805-7.3793945.2431641-.2732869.18087-.6473599.1071052-.8305665-.1723633z" fill="#fff"/></g></g></g></g></g><g><g><g><g><path d="m35.6611443 32.9843712c0 5.0994377-4.1638355 9.1499634-9.169981 9.1499634-2.789978 0-5.289978-1.2600098-6.9800415-3.2299805 1.6000366 1.3599854 3.6700439 2.1799927 5.9200439 2.1799927 4.957407 0 9.169981-4.0019112 9.169981-9.1500244 0-2.2099609-.7699585-4.2399902-2.0799561-5.8399658.1599731.1300049.3099976.2699585.4500122.4099731 1.669983 1.6700439 2.6899415 3.9500122 2.6899415 6.4800415z" fill="#7553aa"/></g></g></g></g><g><g><g><g><path d="m28.3003578 28.7402897c.1998196.2141552.2380486.4632511.1534767.7448978l-2.5551491 7.4623985c-.0927639.2780113-.3384933.4875717-.6726513.4875717-.4461899 0-.8336735-.4048233-.6681881-.9570656l2.5552044-7.4669456c.1830083-.5491371.859417-.6169414 1.1873074-.2708568z" fill="#fff"/></g></g><g><g><path d="m23.7091255 32.1035728-2.8125038 1.2459984 2.8170223 1.2550087c.4671593.1834831.6108971.7964058.2437992 1.1511803-.1859932.1859932-.4665222.2610359-.7584553.1535072l-.0180206-.0045204-3.8463345-1.7245293c-.3268623-.1633759-.532732-.4340553-.532732-.7900314v-.0767403c0-.3605042.2137203-.6415787.5282135-.7900314l3.850853-1.7245293c.3340664-.1263905.5868473-.0496521.7809944.1444664.3492985.3612805.2379628.9402295-.2528362 1.1602211z" fill="#fff"/></g></g><g><g><path d="m34.2007408 33.313446v.0767403c0 .3553963-.2073441.6296921-.5281563.785511l-3.850853 1.7290497c-.2320423.0977516-.5575256.074482-.7809944-.1489868-.3472004-.347126-.2396469-.951889.2527809-1.1557007l2.812561-1.2504883-2.8215427-1.250515c-.258873-.1150417-.446928-.3710194-.446928-.654604 0-.5345459.5451241-.8351116.9796028-.6500854l3.850853 1.7290478c.319252.1466713.5326767.4356537.5326767.7900314z" fill="#fff"/></g></g></g></g><g opacity=".3"><g><g><path d="m5.5573959 23.860796v1.3426514c0 .4859467-.3942571.8802032-.8802023.8802032s-.8802021-.3942566-.8802021-.8802032v-1.3426514c0-.4859447.3942573-.8802032.8802021-.8802032s.8802023.3942584.8802023.8802032z" fill="#fff"/></g></g><g><g><path d="m5.5573959 27.6396828v9.591114c0 .4859428-.3942571.8801994-.8802023.8801994s-.8802021-.3942566-.8802021-.8801994v-9.591114c0-.4859447.3942573-.8802013.8802021-.8802013s.8802023.3942565.8802023.8802013z" fill="#fff"/></g></g></g></g></svg>