<svg viewBox="0 0 512 512" xmlns="http://www.w3.org/2000/svg"><g id="Layer_2" data-name="Layer 2"><g id="Technical_Communication_Suite" data-name="Technical Communication Suite"><rect fill="#fff" height="482" rx="45.83" width="482" x="15" y="15"/><g fill="#5d6cdb"><path d="m451.17 0h-390.34a60.82 60.82 0 0 0 -60.83 60.83v390.34a60.82 60.82 0 0 0 60.83 60.83h390.34a60.82 60.82 0 0 0 60.83-60.83v-390.34a60.82 60.82 0 0 0 -60.83-60.83zm30.83 451.17a30.86 30.86 0 0 1 -30.83 30.83h-390.34a30.86 30.86 0 0 1 -30.83-30.83v-390.34a30.86 30.86 0 0 1 30.83-30.83h390.34a30.86 30.86 0 0 1 30.83 30.83z"/><path d="m261.14 160.15c-.3-2.1-1.2-2.7-3-2.7h-149.14c-1.8 0-2.4.6-2.7 2.4l-3.9 27.9c-.3 1.5.3 2.4 1.8 2.4h60.9v161.7c0 2.1.6 3 2.7 2.7h30.9c1.5 0 2.4-.9 2.4-2.7v-161.7h60.6c1.5 0 2.4-.9 2.1-2.7zm98.39 80.7-11.4-4.8c-23.7-9.9-30.6-17.4-30.6-28.2 0-10.5 8.1-21.3 33.9-21.3 17.4 0 33.9 3.3 45.3 9.9 1.8 1.2 2.71 0 2.71-1.2v-29.1c0-2.1-.3-3-1.8-3.9-9.91-5.1-27-7.8-45.91-7.8-45.3 0-69.6 24.6-69.6 56.7 0 22.5 9.6 41.1 46.5 56.7l14.4 6c22.8 9.6 30 18 30 29.1 0 12.9-10.5 22.5-35.1 22.5a101 101 0 0 1 -53.4-15.6c-1.2-.6-2.4 0-2.4 1.2v31.2c0 2.4.6 3.6 2.1 4.5 12.3 6.6 30.6 10.8 52.5 10.8 45.3 0 72.91-22.8 72.91-57.9 0-23.65-11.11-42.6-50.11-58.8z"/></g></g></g></svg>