<svg fill="none" height="512" viewBox="0 0 24 24" width="512" xmlns="http://www.w3.org/2000/svg"><path clip-rule="evenodd" d="m3 0c-1.65685 0-3 1.34787-3 3.01055v14.04925c0 1.6627 1.34315 3.0105 3 3.0105h2.78607c.23085 0 .45458.0802.63324.2269l3.68099 3.0223c1.1051.9073 2.6943.9073 3.7994 0l3.681-3.0223c.1787-.1467.4024-.2269.6332-.2269h2.7861c1.6569 0 3-1.3478 3-3.0105v-14.04925c0-1.66268-1.3431-3.01055-3-3.01055zm2 8.02814c0-.55423.44772-1.00352 1-1.00352h4c.5523 0 1 .44929 1 1.00352s-.4477 1.00352-1 1.00352h-4c-.55228 0-1-.44929-1-1.00352zm1 3.01056c-.55228 0-1 .4493-1 1.0035s.44772 1.0035 1 1.0035h12c.5523 0 1-.4493 1-1.0035s-.4477-1.0035-1-1.0035z" fill="rgb(0,0,0)" fill-rule="evenodd"/></svg>