<?xml version="1.0" encoding="UTF-8" standalone="no"?>
<!-- Created with Inkscape (http://www.inkscape.org/) -->

<svg
   version="1.1"
   id="svg1206"
   xml:space="preserve"
   width="682.66669"
   height="682.66669"
   viewBox="0 0 682.66669 682.66669"
   xmlns="http://www.w3.org/2000/svg"
   xmlns:svg="http://www.w3.org/2000/svg"><defs
     id="defs1210"><clipPath
       clipPathUnits="userSpaceOnUse"
       id="clipPath1220"><path
         d="M 0,512 H 512 V 0 H 0 Z"
         id="path1218" /></clipPath></defs><g
     id="g1212"
     transform="matrix(1.3333333,0,0,-1.3333333,0,682.66667)"><g
       id="g1214"><g
         id="g1216"
         clip-path="url(#clipPath1220)"><g
           id="g1222"
           transform="translate(436,512)"><path
             d="M 0,0 H -68.787 L 15,-83.787 V -15 C 15,-6.716 8.284,0 0,0"
             style="fill:#000000;fill-opacity:1;fill-rule:nonzero;stroke:none"
             id="path1224" /></g><g
           id="g1226"
           transform="translate(361,475.7866)"><path
             d="M 0,0 V -53.787 H 53.787 Z"
             style="fill:#000000;fill-opacity:1;fill-rule:nonzero;stroke:none"
             id="path1228" /></g><g
           id="g1230"
           transform="translate(391.041,205.6401)"><path
             d="m 0,0 c 0,-4.431 -1.959,-8.636 -5.353,-11.485 l -54,-45.36 c -2.81,-2.362 -6.234,-3.515 -9.639,-3.515 -4.279,0 -8.527,1.82 -11.493,5.352 -5.328,6.343 -4.506,15.805 1.838,21.133 L -38.321,0 -78.647,33.875 c -6.344,5.328 -7.166,14.79 -1.838,21.133 5.329,6.344 14.79,7.166 21.132,1.837 l 54,-45.36 C -1.959,8.636 0,4.431 0,0 m -91.727,82.865 -54.162,-167.618 c -2.051,-6.35 -7.938,-10.392 -14.27,-10.392 -1.528,0 -3.082,0.236 -4.615,0.731 -7.883,2.547 -12.208,11.002 -9.662,18.886 l 54.163,167.618 c 2.546,7.882 11.002,12.207 18.885,9.661 7.883,-2.547 12.208,-11.002 9.661,-18.886 m -99.626,-116.74 c 6.344,-5.328 7.166,-14.79 1.838,-21.133 -2.966,-3.532 -7.215,-5.352 -11.493,-5.352 -3.405,0 -6.828,1.153 -9.639,3.515 l -54,45.36 C -268.041,-8.636 -270,-4.431 -270,0 c 0,4.431 1.959,8.636 5.353,11.485 l 54,45.36 c 6.341,5.329 15.804,4.506 21.132,-1.837 5.328,-6.343 4.506,-15.805 -1.838,-21.133 L -231.679,0 Z M -60.041,201.36 v 105 h -255 c -8.284,0 -15,-6.716 -15,-15 v -482 c 0,-8.284 6.716,-15 15,-15 h 360 c 8.284,0 15,6.716 15,15 v 377 h -105 c -8.284,0 -15,6.716 -15,15"
             style="fill:#000000;fill-opacity:1;fill-rule:nonzero;stroke:none"
             id="path1232" /></g></g></g></g></svg>
