<svg id="Capa_1" enable-background="new 0 0 512 512" height="512" viewBox="0 0 512 512" width="512" xmlns="http://www.w3.org/2000/svg"><g><path d="m261.137 255.189v254.629l-2.568 1.489c-1.592.924-3.554.924-5.146 0l-215.739-124.968c-1.592-.924-2.568-2.619-2.568-4.448v-251.66l220.886 127.936z" fill="#fca62f"/><path d="m256.001 258.167v253.828c-.894 0-1.787-.226-2.578-.688l-32.161-18.633v-254.629z" fill="#f98824"/><g fill="#fcc16d"><path d="m182.37 215.519v84.866l-73.619-42.639v-84.866z"/><path d="m108.751 257.746v84.866l-73.632-42.651v-84.866z"/><path d="m182.37 385.251v84.896l-73.619-42.648v-84.887z"/><path d="m255.998 343.033.002 84.897-73.63-42.679v-84.866z"/></g><path d="m221.257 407.791 34.743 20.139-.002-84.897-34.741-20.123z" fill="#fca62f"/><path d="m476.887 130.232v251.66c0 1.828-.976 3.523-2.568 4.437l-215.75 124.978c-.801.462-1.685.688-2.568.688v-253.828z" fill="#e2267f"/><path d="m476.887 130.232v251.66c0 1.828-.976 3.523-2.568 4.437l-30.939 17.924v-254.618z" fill="#c11f6c"/><path d="m403.25 427.509v-84.866l-73.619 42.638v84.866z" fill="#fb4297"/><path d="m329.631 385.281v-84.866l-73.633 42.618.002 84.897z" fill="#fb4297"/><path d="m403.25 257.777v-84.897l-73.619 42.649v84.886z" fill="#fb4297"/><path d="m476.881 299.993v-84.898l-73.631 42.682v84.866z" fill="#fb4297"/><path d="m476.884 215.098v84.896l-33.507 19.404v-84.876z" fill="#e2267f"/><path d="m37.47 125.782 215.956-125.088c1.592-.922 3.556-.922 5.149 0l215.955 125.091c3.416 1.978 3.416 6.91 0 8.888l-215.956 125.088c-1.592.922-3.556.922-5.148 0l-215.956-125.09c-3.415-1.979-3.415-6.91 0-8.889z" fill="#fc7cb6"/><path d="m474.525 134.669-28.504 16.517-226.197-131.038 33.599-19.455c1.592-.924 3.554-.924 5.146 0l215.955 125.091c3.421 1.982 3.421 6.913.001 8.885z" fill="#fb5fa7"/><path d="m405.909 86.042-76.279 44.19-73.629-42.649 76.289-44.19z" fill="#fca5cd"/><path d="m405.919 86.042-36.177 20.955-73.629-42.649 36.177-20.955z" fill="#fc7cb6"/><path d="m405.909 174.411-73.619 42.648-76.289-44.189 73.629-42.638z" fill="#fca5cd"/><path d="m256.001 87.583-73.628 42.649-76.289-44.19 73.629-42.649z" fill="#fca5cd"/><path d="m256.001 172.88-76.278 44.19h-.01l-73.629-42.659 76.289-44.179z" fill="#fca5cd"/></g></svg>