<svg fill="none" height="512" viewBox="0 0 101 100" width="512" xmlns="http://www.w3.org/2000/svg"><g fill="rgb(0,0,0)"><path d="m83.3245 63.3117c.4951-1.23 1.6597-2.0857 2.9856-2.0857 2.0356 0 3.5093 1.9462 2.7728 3.8439-6.04 15.563-21.1602 26.5961-38.8573 26.5961-23.0115 0-41.66603-18.6545-41.66603-41.666s18.65453-41.66602 41.66603-41.66602c17.697 0 32.8172 11.03302 38.8572 26.59592.7365 1.8978-.7371 3.844-2.7728 3.844-1.3259 0-2.4904-.8557-2.9855-2.0857-5.2753-13.1042-18.1069-22.3542-33.0989-22.3542-19.6978 0-35.666 15.9682-35.666 35.666s15.9682 35.666 35.666 35.666c14.9921 0 27.8237-9.2501 33.0989-22.3543z"/><path d="m89.4404 47h-46.0853l10.7763-10.7764c1.1716-1.1716 1.1716-3.0711 0-4.2426-1.1715-1.1716-3.071-1.1716-4.2426 0l-15.7834 15.7834c-.6143.6142-.9065 1.4286-.8766 2.2333-.0311.8061.261 1.6224.8764 2.2379l15.7834 15.7834c1.1716 1.1715 3.0711 1.1715 4.2427 0 1.1715-1.1716 1.1715-3.0711 0-4.2427l-10.7763-10.7763h46.0854c1.6569 0 3-1.3431 3-3s-1.3431-3-3-3z"/></g></svg>