<svg fill="none" height="512" viewBox="0 0 24 24" width="512" xmlns="http://www.w3.org/2000/svg" xmlns:xlink="http://www.w3.org/1999/xlink"><linearGradient id="paint0_linear_16_862" gradientUnits="userSpaceOnUse" x1="12" x2="12" y1="0" y2="24"><stop offset="0" stop-color="#ce9ffc"/><stop offset=".979167" stop-color="#7367f0"/></linearGradient><path d="m15 4h-10v16h14v-12h-4zm-12-1.008c0-.548.447-.992.999-.992h12.001l5 5v13.993c.0009.1313-.024.2615-.0734.3832s-.1223.2325-.2145.326-.202.1679-.3229.219c-.121.0511-.2509.0779-.3822.0788h-16.014c-.26262-.0018-.51398-.1069-.69978-.2925s-.29113-.4369-.29322-.6995zm14.657 9.008-3.536 3.536-1.414-1.415 2.121-2.121-2.12-2.121 1.413-1.415zm-11.314 0 3.537-3.536 1.414 1.415-2.122 2.121 2.12 2.121-1.413 1.415z" fill="url(#paint0_linear_16_862)"/></svg>