<svg fill="none" height="512" viewBox="0 0 21 20" width="512" xmlns="http://www.w3.org/2000/svg"><g fill="rgb(0,0,0)"><path d="m3.14176 4.06511c.74909-.06511 1.6965-.06511 2.96935-.06511h1.77778c2.48911 0 3.73371 0 4.68441.48693.8363.42831 1.5162 1.11175 1.9423 1.95236.4844.95565.4844 2.20667.4844 4.70871v2.4114c0 .2499 0 .3748-.005.4804-.0777 1.6501-1.0414 3.0636-2.4246 3.7715l1.3711.978c.895.6384 2.0711-.2835 1.6626-1.3033-.2894-.7224.2434-1.5081 1.0225-1.5081h.6017c2.0831 0 3.7717-1.6863 3.7717-3.7665v-4.22247c0-2.79639 0-4.19458-.545-5.26266-.4793-.93951-1.2442-1.70335-2.185-2.182057-1.0696-.544213-2.4697-.544213-5.27-.544213h-2c-2.80026 0-4.2004 0-5.26995.544213-.94081.478707-1.70572 1.242547-2.18508 2.182057-.19709.38627-.3229.81571-.40321 1.33884z"/><path clip-rule="evenodd" d="m13.5761 7.15232c.4239.84322.4239 1.94706.4239 4.15478v2.1277c0 .2204 0 .3307-.0044.4238-.0948 2.0305-1.6974 3.655-3.7006 3.7511-.0919.0044-.2132.0044-.45583.0044l-.06226.0001c-.79352.0051-1.5665.2562-2.21516.7195l-.04125.0298-2.03057 1.4702c-.6961.504-1.61082-.2239-1.29312-1.0289.22505-.5703-.1893-1.1907-.79527-1.1907h-.46803c-1.62013 0-2.93351-1.3313-2.93351-2.9735v-3.3335c0-2.20772 0-3.31156.423864-4.15478.37284-.74172.967766-1.34475 1.699506-1.72268.83188-.42964 1.92087-.42964 4.09885-.42964h1.55556c2.17798 0 3.26702 0 4.09882.42964.7318.37793 1.3267.98096 1.6995 1.72268zm-9.5761 5.84768c.55228 0 1-.4477 1-1s-.44772-1-1-1-1 .4477-1 1 .44772 1 1 1zm4-1c0 .5523-.44772 1-1 1s-1-.4477-1-1 .44772-1 1-1 1 .4477 1 1zm2 1c.5523 0 1-.4477 1-1s-.4477-1-1-1c-.55229 0-1 .4477-1 1s.44771 1 1 1z" fill-rule="evenodd"/></g></svg>