<?xml version="1.0"?>
<svg xmlns="http://www.w3.org/2000/svg" data-name="Layer 1" id="Layer_1" viewBox="0 0 128 128"><title/><path d="M125.44458,67.1947,97.23572,50.58044a5.1365,5.1365,0,0,0-4.74384,0L67.449,65.33a9.8486,9.8486,0,0,1,2.001,3.462L94.48254,54.04852a1.52207,1.52207,0,0,1,.76251,0l25.911,15.26086L95.02472,85.64648,69.76886,70.03741a7.71272,7.71272,0,0,1,.1308,1.32684v3.45459L92.86664,89.013v33.98853L69.45026,109.20776a9.84656,9.84656,0,0,1-2.00165,3.46161l25.04327,14.75208a5.15141,5.15141,0,0,0,4.74384,0l28.20886-16.61682a5.34273,5.34273,0,0,0,2.37189-4.16681V71.36426A5.34349,5.34349,0,0,0,125.44458,67.1947Z"/><path d="M63.53339,67.1947,62.14,66.374l-3.939,2.32043,1.044.61493L33.11359,85.64648l-26.4433-16.343,1.21747-.717L3.94861,66.26605l-1.57672.92865A5.34349,5.34349,0,0,0,0,71.36426v35.27356a5.34273,5.34273,0,0,0,2.37189,4.16681l28.20892,16.61682a5.15128,5.15128,0,0,0,4.74377,0l28.2088-16.61682a5.34252,5.34252,0,0,0,2.372-4.16681V71.36426A5.34328,5.34328,0,0,0,63.53339,67.1947ZM30.95557,123.00153,4.42786,107.375a1.76416,1.76416,0,0,1-.43359-.73718L3.99255,72.34924,30.95557,89.013Z"/><path d="M63.717,17.1947,35.50812.58044a5.1365,5.1365,0,0,0-4.74384,0L2.55542,17.1947A5.34349,5.34349,0,0,0,.18353,21.36426V56.63782a5.34273,5.34273,0,0,0,2.37189,4.16681L30.76428,77.42145a5.15141,5.15141,0,0,0,4.74384,0L63.717,60.80463a5.34273,5.34273,0,0,0,2.37189-4.16681V21.36426A5.34349,5.34349,0,0,0,63.717,17.1947ZM31.13892,73.0014,4.61133,57.375a1.76511,1.76511,0,0,1-.43353-.73718L4.17609,22.357,31.13892,39.21362ZM32.9751,35.646,6.84424,19.3092,32.75488,4.04858a1.52138,1.52138,0,0,1,.76257-.00006l25.90094,15.255Z"/><path d="M125.62811,17.1947,97.41919.58044a5.13638,5.13638,0,0,0-4.74377,0l-25.043,14.74963A9.8477,9.8477,0,0,1,69.63354,18.792L94.666,4.04858a1.52114,1.52114,0,0,1,.76251-.00006l25.901,15.255L94.88623,35.646,69.95734,20.06073a7.69463,7.69463,0,0,1,.12579,1.30377v3.49072L93.05,39.21362v6.98193c.18237-.0354.36884-.05292.55377-.07776.11871-.01733.23572-.037.35535-.04987.12476-.01215.24969-.01526.37494-.02252a8.92363,8.92363,0,0,1,5.07367,1.08984L123.244,61.15356l2.38409-.34894A5.34273,5.34273,0,0,0,128,56.63782V21.36426A5.34349,5.34349,0,0,0,125.62811,17.1947Z"/></svg>
