<svg height="512" viewBox="0 0 48 48" width="512" xmlns="http://www.w3.org/2000/svg" xmlns:xlink="http://www.w3.org/1999/xlink"><linearGradient id="a" gradientUnits="userSpaceOnUse" x1="8.609" x2="40.619" y1="8.609" y2="40.619"><stop offset="0" stop-color="#ff76b8"/><stop offset=".227" stop-color="#e563cf"/><stop offset=".54" stop-color="#c74de9"/><stop offset=".809" stop-color="#b540f9"/><stop offset="1" stop-color="#ae3bff"/></linearGradient><rect fill="url(#a)" height="40" rx="10" width="40" x="4" y="4"/><g fill="#fff"><path d="m22 32v-4h-5a1 1 0 0 1 -1-1v-3h16v3a1 1 0 0 1 -1 1h-5v3.893a2.075 2.075 0 0 1 -1.664 2.08 2 2 0 0 1 -2.336-1.973z" opacity=".9"/><path d="m32 15a1 1 0 0 0 -1-1h-7l-2 4-2-4h-3a1 1 0 0 0 -1 1v7h16z" opacity=".5"/></g></svg>