<svg height="512" viewBox="0 0 48 48" width="512" xmlns="http://www.w3.org/2000/svg" xmlns:xlink="http://www.w3.org/1999/xlink"><linearGradient id="a" gradientUnits="userSpaceOnUse" x1="8.609" x2="40.619" y1="8.609" y2="40.619"><stop offset="0" stop-color="#ff76b8"/><stop offset=".227" stop-color="#e563cf"/><stop offset=".54" stop-color="#c74de9"/><stop offset=".809" stop-color="#b540f9"/><stop offset="1" stop-color="#ae3bff"/></linearGradient><rect fill="url(#a)" height="40" rx="10" width="40" x="4" y="4"/><g fill="#fff"><path d="m32 15h-16a1 1 0 0 0 -1 1v12a1 1 0 0 0 1 1h5l3 4 3-4h5a1 1 0 0 0 1-1v-12a1 1 0 0 0 -1-1zm-8 11h-4a1 1 0 0 1 0-2h4a1 1 0 0 1 0 2zm4-5h-8a1 1 0 0 1 0-2h8a1 1 0 0 1 0 2z"/><path d="m20 19h8a1 1 0 0 1 0 2h-8a1 1 0 0 1 0-2z" opacity=".5"/><path d="m20 24h4a1 1 0 0 1 0 2h-4a1 1 0 0 1 0-2z" opacity=".5"/></g></svg>