<svg fill="none" height="64" viewBox="0 0 64 64" width="64" xmlns="http://www.w3.org/2000/svg"><path clip-rule="evenodd" d="m2 20c0-9.9411 8.0589-18 18-18h24c9.9411 0 18 8.0589 18 18v24c0 9.9411-8.0589 18-18 18h-24c-9.9411 0-18-8.0589-18-18zm35.5985-4.5809c.2314-1.0801-.4565-2.1433-1.5366-2.3747-1.08-.2314-2.1432.4565-2.3746 1.5365l-7.2858 34c-.2314 1.0801.4565 2.1433 1.5366 2.3747 1.08.2314 2.1432-.4565 2.3746-1.5365zm-13.8986 10.7094c.7811-.781.7811-2.0474 0-2.8284-.781-.7811-2.0474-.7811-2.8284 0l-7.2857 7.2857c-.7811.781-.7811 2.0474 0 2.8284l7.2857 7.2857c.781.7811 2.0474.7811 2.8284 0 .7811-.781.7811-2.0474 0-2.8284l-5.8715-5.8715zm19.4286-2.8284c-.781-.7811-2.0474-.7811-2.8284 0-.7811.781-.7811 2.0474 0 2.8284l5.8715 5.8715-5.8715 5.8715c-.7811.781-.7811 2.0474 0 2.8284.781.7811 2.0474.7811 2.8284 0l7.2857-7.2857c.7811-.781.7811-2.0474 0-2.8284z" fill="rgb(0,0,0)" fill-rule="evenodd"/></svg>